# xmcd
#
# Track frame offsets: 
#        150
#        16057
#        29190
#        40262
#        52742
#        64542
#        74752
#        89325
#        105117
#        115210
#
# Disc length: 1745 seconds
#
# Revision: 0
# Processed by: cddbd v1.5.1PL0 Copyright (c) Steve Scherf et al.
# Submitted via: ExactAudioCopy v0.95a5
#
DISCID=7c06cf0a
DTITLE=Various Artist - Country Giants
DYEAR=1995
DGENRE=Country
TTITLE0=Johnny Darrell/Lucille
TTITLE1=Johnny Paycheck/Heaven's Almost As Big As Texas
TTITLE2=Carl Belew/Stop The World And Let Me Off
TTITLE3=Mac Wiseman/Wabash Cannonball
TTITLE4=Sue Thompson/Paper Roses
TTITLE5=Narvel Felts/Mountain Of Love
TTITLE6=Kendalls/Leaving On A Jet Plane
TTITLE7=Jan Howard/1432 Franklin Pike Circle Hero
TTITLE8=Dorsey Burnette/Big Rock Candy Mountain
TTITLE9=Freddie Hart/Roses Are Red
EXTD=
EXTT0=
EXTT1=
EXTT2=
EXTT3=
EXTT4=
EXTT5=
EXTT6=
EXTT7=
EXTT8=
EXTT9=
PLAYORDER=
